<mxfile host="app.diagrams.net" modified="2021-08-06T19:53:30.911Z" agent="5.0 (Windows NT 10.0; Win64; x64) AppleWebKit/537.36 (KHTML, like Gecko) Chrome/92.0.4515.131 Safari/537.36" etag="W69rozxvAvG5itEWCq7q" version="14.9.4" type="github">
  <diagram id="rNg7WAnM9cX5MksuThyT" name="Page-1">
    <mxGraphModel dx="1209" dy="642" grid="1" gridSize="10" guides="1" tooltips="1" connect="1" arrows="1" fold="1" page="1" pageScale="1" pageWidth="850" pageHeight="1100" math="0" shadow="0">
      <root>
        <mxCell id="0" />
        <mxCell id="1" parent="0" />
        <mxCell id="FkngZPkulZqfES3EpwHt-2" value="" style="endArrow=none;html=1;" parent="1" edge="1">
          <mxGeometry width="50" height="50" relative="1" as="geometry">
            <mxPoint x="250" y="160" as="sourcePoint" />
            <mxPoint x="250" y="100" as="targetPoint" />
          </mxGeometry>
        </mxCell>
        <mxCell id="FkngZPkulZqfES3EpwHt-8" value="" style="edgeStyle=orthogonalEdgeStyle;rounded=0;orthogonalLoop=1;jettySize=auto;html=1;" parent="1" source="FkngZPkulZqfES3EpwHt-3" edge="1">
          <mxGeometry relative="1" as="geometry">
            <mxPoint x="465" y="200" as="targetPoint" />
          </mxGeometry>
        </mxCell>
        <mxCell id="FkngZPkulZqfES3EpwHt-16" value="" style="edgeStyle=orthogonalEdgeStyle;rounded=0;orthogonalLoop=1;jettySize=auto;html=1;" parent="1" source="FkngZPkulZqfES3EpwHt-3" target="FkngZPkulZqfES3EpwHt-15" edge="1">
          <mxGeometry relative="1" as="geometry" />
        </mxCell>
        <mxCell id="FkngZPkulZqfES3EpwHt-3" value="does n equal to 1?" style="rhombus;whiteSpace=wrap;html=1;" parent="1" vertex="1">
          <mxGeometry x="170" y="160" width="170" height="80" as="geometry" />
        </mxCell>
        <mxCell id="FkngZPkulZqfES3EpwHt-4" value="Int n = 0;" style="text;html=1;align=center;verticalAlign=middle;resizable=0;points=[];autosize=1;strokeColor=none;" parent="1" vertex="1">
          <mxGeometry x="450" y="30" width="60" height="20" as="geometry" />
        </mxCell>
        <mxCell id="FkngZPkulZqfES3EpwHt-9" value="yes" style="text;html=1;align=center;verticalAlign=middle;resizable=0;points=[];autosize=1;strokeColor=none;" parent="1" vertex="1">
          <mxGeometry x="365" y="160" width="30" height="20" as="geometry" />
        </mxCell>
        <mxCell id="FkngZPkulZqfES3EpwHt-21" style="edgeStyle=orthogonalEdgeStyle;rounded=0;orthogonalLoop=1;jettySize=auto;html=1;exitX=1;exitY=0.5;exitDx=0;exitDy=0;entryX=-0.032;entryY=0.385;entryDx=0;entryDy=0;entryPerimeter=0;" parent="1" source="FkngZPkulZqfES3EpwHt-15" target="FkngZPkulZqfES3EpwHt-20" edge="1">
          <mxGeometry relative="1" as="geometry" />
        </mxCell>
        <mxCell id="FkngZPkulZqfES3EpwHt-29" value="" style="edgeStyle=orthogonalEdgeStyle;rounded=0;orthogonalLoop=1;jettySize=auto;html=1;" parent="1" source="FkngZPkulZqfES3EpwHt-15" target="FkngZPkulZqfES3EpwHt-28" edge="1">
          <mxGeometry relative="1" as="geometry" />
        </mxCell>
        <mxCell id="FkngZPkulZqfES3EpwHt-15" value="does n equal to 2?" style="rhombus;whiteSpace=wrap;html=1;" parent="1" vertex="1">
          <mxGeometry x="170" y="320" width="170" height="80" as="geometry" />
        </mxCell>
        <mxCell id="FkngZPkulZqfES3EpwHt-19" value="&lt;span&gt;return output;&lt;/span&gt;&lt;br&gt;&lt;span&gt;output = [ 0 ];&lt;/span&gt;" style="rounded=1;whiteSpace=wrap;html=1;" parent="1" vertex="1">
          <mxGeometry x="470" y="170" width="120" height="60" as="geometry" />
        </mxCell>
        <mxCell id="FkngZPkulZqfES3EpwHt-20" value="return output;&lt;br&gt;output = [0, 1];" style="rounded=1;whiteSpace=wrap;html=1;" parent="1" vertex="1">
          <mxGeometry x="480" y="340" width="120" height="50" as="geometry" />
        </mxCell>
        <mxCell id="FkngZPkulZqfES3EpwHt-22" value="yes" style="text;html=1;align=center;verticalAlign=middle;resizable=0;points=[];autosize=1;strokeColor=none;" parent="1" vertex="1">
          <mxGeometry x="385" y="330" width="30" height="20" as="geometry" />
        </mxCell>
        <mxCell id="FkngZPkulZqfES3EpwHt-23" value="no" style="text;html=1;align=center;verticalAlign=middle;resizable=0;points=[];autosize=1;strokeColor=none;" parent="1" vertex="1">
          <mxGeometry x="255" y="270" width="30" height="20" as="geometry" />
        </mxCell>
        <mxCell id="FkngZPkulZqfES3EpwHt-26" value="&lt;span&gt;START&lt;/span&gt;&lt;br&gt;&lt;span&gt;output = [ ];&lt;/span&gt;" style="ellipse;whiteSpace=wrap;html=1;" parent="1" vertex="1">
          <mxGeometry x="190" y="20" width="120" height="80" as="geometry" />
        </mxCell>
        <mxCell id="FkngZPkulZqfES3EpwHt-27" value="no" style="text;html=1;align=center;verticalAlign=middle;resizable=0;points=[];autosize=1;strokeColor=none;" parent="1" vertex="1">
          <mxGeometry x="265" y="420" width="30" height="20" as="geometry" />
        </mxCell>
        <mxCell id="FkngZPkulZqfES3EpwHt-31" value="" style="edgeStyle=orthogonalEdgeStyle;rounded=0;orthogonalLoop=1;jettySize=auto;html=1;" parent="1" source="FkngZPkulZqfES3EpwHt-28" target="FkngZPkulZqfES3EpwHt-30" edge="1">
          <mxGeometry relative="1" as="geometry" />
        </mxCell>
        <mxCell id="FkngZPkulZqfES3EpwHt-28" value="sum 2 of the last values" style="whiteSpace=wrap;html=1;" parent="1" vertex="1">
          <mxGeometry x="195" y="490" width="120" height="60" as="geometry" />
        </mxCell>
        <mxCell id="FkngZPkulZqfES3EpwHt-33" value="" style="edgeStyle=orthogonalEdgeStyle;rounded=0;orthogonalLoop=1;jettySize=auto;html=1;" parent="1" source="FkngZPkulZqfES3EpwHt-30" target="FkngZPkulZqfES3EpwHt-32" edge="1">
          <mxGeometry relative="1" as="geometry" />
        </mxCell>
        <mxCell id="FkngZPkulZqfES3EpwHt-34" style="edgeStyle=orthogonalEdgeStyle;rounded=0;orthogonalLoop=1;jettySize=auto;html=1;exitX=0.5;exitY=1;exitDx=0;exitDy=0;entryX=0;entryY=0.5;entryDx=0;entryDy=0;" parent="1" source="FkngZPkulZqfES3EpwHt-30" target="FkngZPkulZqfES3EpwHt-28" edge="1">
          <mxGeometry relative="1" as="geometry">
            <mxPoint x="130" y="520" as="targetPoint" />
            <Array as="points">
              <mxPoint x="255" y="760" />
              <mxPoint x="120" y="760" />
              <mxPoint x="120" y="520" />
            </Array>
          </mxGeometry>
        </mxCell>
        <mxCell id="FkngZPkulZqfES3EpwHt-30" value="does n equal number &lt;br&gt;of items&lt;br&gt;in the array?" style="rhombus;whiteSpace=wrap;html=1;" parent="1" vertex="1">
          <mxGeometry x="170" y="620" width="170" height="120" as="geometry" />
        </mxCell>
        <mxCell id="FkngZPkulZqfES3EpwHt-32" value="return output;" style="whiteSpace=wrap;html=1;" parent="1" vertex="1">
          <mxGeometry x="445" y="650" width="120" height="60" as="geometry" />
        </mxCell>
        <mxCell id="FkngZPkulZqfES3EpwHt-35" value="yes" style="text;html=1;align=center;verticalAlign=middle;resizable=0;points=[];autosize=1;strokeColor=none;" parent="1" vertex="1">
          <mxGeometry x="365" y="650" width="30" height="20" as="geometry" />
        </mxCell>
        <mxCell id="FkngZPkulZqfES3EpwHt-36" value="no" style="text;html=1;align=center;verticalAlign=middle;resizable=0;points=[];autosize=1;strokeColor=none;" parent="1" vertex="1">
          <mxGeometry x="65" y="630" width="30" height="20" as="geometry" />
        </mxCell>
      </root>
    </mxGraphModel>
  </diagram>
</mxfile>
